<?xml version="1.0" standalone="no"?>
<!DOCTYPE svg PUBLIC "-//W3C//DTD SVG 20010904//EN"
 "http://www.w3.org/TR/2001/REC-SVG-20010904/DTD/svg10.dtd">
<svg version="1.0" xmlns="http://www.w3.org/2000/svg"
 width="260.000000pt" height="260.000000pt" viewBox="0 0 260.000000 260.000000"
 preserveAspectRatio="xMidYMid meet">

<g transform="translate(0.000000,260.000000) scale(0.100000,-0.100000)"
fill="#000000" stroke="none">
<path d="M1020 2578 c-52 -36 -73 -71 -78 -133 l-4 -55 -230 0 c-260 0 -281
-5 -324 -70 -19 -28 -34 -39 -61 -43 -78 -13 -163 -111 -163 -188 0 -63 -78
-59 1140 -59 994 0 1110 2 1124 16 56 56 -45 214 -147 231 -27 4 -42 15 -61
43 -43 65 -64 70 -324 70 l-230 0 -4 55 c-5 62 -26 97 -78 133 -32 21 -40 22
-280 22 -240 0 -248 -1 -280 -22z m518 -94 c16 -11 22 -25 22 -55 l0 -39 -260
0 -260 0 0 39 c0 68 11 71 260 71 179 0 219 -3 238 -16z"/>
<path d="M284 1883 c3 -21 62 -422 131 -891 140 -960 129 -914 223 -965 l50
-27 611 0 c543 0 616 2 644 16 42 21 85 62 104 97 8 17 66 379 139 880 68 469
127 869 130 890 l6 37 -1022 0 -1022 0 6 -37z m1717 -157 c7 -15 -14 -203 -75
-671 -48 -358 -90 -660 -96 -672 -14 -33 -57 -41 -83 -14 l-21 21 88 661 c48
364 90 668 93 676 14 36 78 35 94 -1z m-1312 6 c5 -9 49 -315 97 -680 l88
-662 -21 -21 c-26 -27 -69 -19 -83 14 -5 12 -48 314 -95 672 -66 493 -84 655
-76 672 13 29 75 33 90 5z m435 -4 c11 -18 20 -171 42 -681 l28 -658 -21 -21
c-26 -26 -70 -18 -82 15 -4 12 -21 318 -36 679 -24 541 -26 659 -16 672 20 24
68 20 85 -6z m436 7 c11 -13 9 -110 -9 -528 -38 -861 -35 -828 -56 -844 -26
-18 -49 -16 -70 7 -18 20 -18 40 8 653 29 681 30 692 48 713 15 19 63 18 79
-1z"/>
</g>
</svg>
